<?xml version="1.0" encoding="utf-8" ?>
<svg baseProfile="full" height="100" version="1.1" width="100" xmlns="http://www.w3.org/2000/svg" xmlns:ev="http://www.w3.org/2001/xml-events" xmlns:xlink="http://www.w3.org/1999/xlink"><defs /><path d="M 48 13 L 47 14 L 46 14 L 44 16 L 43 16 L 42 17 L 41 17 L 39 19 L 38 19 L 37 20 L 36 20 L 35 21 L 34 21 L 32 23 L 31 23 L 30 24 L 29 24 L 28 25 L 27 25 L 25 27 L 24 27 L 23 28 L 22 28 L 20 30 L 19 30 L 18 31 L 18 68 L 19 69 L 20 69 L 22 71 L 23 71 L 24 72 L 25 72 L 27 74 L 28 74 L 29 75 L 30 75 L 31 76 L 32 76 L 34 78 L 35 78 L 36 79 L 37 79 L 38 80 L 39 80 L 41 82 L 42 82 L 43 83 L 44 83 L 46 85 L 47 85 L 48 86 L 51 86 L 54 83 L 55 83 L 56 82 L 57 82 L 59 80 L 61 80 L 62 79 L 63 79 L 64 78 L 65 78 L 67 76 L 68 76 L 69 75 L 70 75 L 71 74 L 72 74 L 74 72 L 75 72 L 76 71 L 77 71 L 79 69 L 80 69 L 81 68 L 81 31 L 80 30 L 79 30 L 77 28 L 76 28 L 75 27 L 74 27 L 72 25 L 71 25 L 70 24 L 69 24 L 68 23 L 67 23 L 65 21 L 64 21 L 63 20 L 62 20 L 61 19 L 60 19 L 58 17 L 57 17 L 56 16 L 55 16 L 53 14 L 52 14 L 51 13" fill="none" stroke="black" stroke-width="1" /></svg>